# xmcd
#
# Track frame offsets: 
#        150
#        19645
#        38235
#        56682
#        75327
#
# Disc length: 1249 seconds
#
# Revision: 0
# Processed by: cddbd v1.5.2PL0 Copyright (c) Steve Scherf et al.
# Submitted via: ExactAudioCopy v0.99pb4
#
DISCID=2f04df05
DTITLE=Total - Sitting Home (Single)
DYEAR=1999
DGENRE=R&B
TTITLE0=Sitting Home
TTITLE1=Sitting Home (Waiting For You) (RMX ft. Shyne)
TTITLE2=Trippin' (RMX ft. DMX)
TTITLE3=Sitting Home (INST)
TTITLE4=Sitting Home (Waiting For You) (INST)
EXTD=
EXTT0=
EXTT1=
EXTT2=
EXTT3=
EXTT4=
PLAYORDER=
